<svg xmlns="http://www.w3.org/2000/svg" viewBox="0 0 390 560" width="390" height="560" role="img" aria-labelledby="lmTitle lmDesc" font-family="'JetBrains Mono', ui-monospace, SFMono-Regular, Menlo, Consolas, monospace">
  <title id="lmTitle">CurdX Flow loop (mobile)</title>
  <desc id="lmDesc">Goal → spec → tasks → run → proof, with refactor returning.</desc>
  <defs>
    <linearGradient id="lmBg" x1="0" y1="0" x2="0" y2="1">
      <stop offset="0" stop-color="#0B1020"/>
      <stop offset="1" stop-color="#050817"/>
    </linearGradient>
    <marker id="lmArr" markerWidth="9" markerHeight="9" refX="7" refY="4.5" orient="auto">
      <path d="M0 0 L7 4.5 L0 9 Z" fill="#3B82F6"/>
    </marker>
    <marker id="lmArrDim" markerWidth="9" markerHeight="9" refX="7" refY="4.5" orient="auto">
      <path d="M0 0 L7 4.5 L0 9 Z" fill="#A78BFA"/>
    </marker>
  </defs>

  <rect width="390" height="560" rx="18" fill="url(#lmBg)"/>
  <rect x="0.5" y="0.5" width="389" height="559" rx="17.5" fill="none" stroke="#1F2937"/>

  <path d="M0 18 Q0 0 18 0 L372 0 Q390 0 390 18 L390 36 L0 36 Z" fill="#0F172A"/>
  <circle cx="18" cy="18" r="4" fill="#475569"/>
  <circle cx="32" cy="18" r="4" fill="#475569"/>
  <circle cx="46" cy="18" r="4" fill="#475569"/>
  <text x="195" y="22" font-size="10" fill="#64748B" text-anchor="middle">curdx-flow · loop</text>
  <line x1="0" y1="36" x2="390" y2="36" stroke="#1F2937"/>

  <text x="24" y="62" font-size="13" fill="#E5E7EB" font-weight="700">A loop you can pause &amp; replay.</text>
  <text x="24" y="80" font-size="10" fill="#94A3B8">Every node leaves a file.</text>

  <!-- Refactor return -->
  <path d="M340 110 Q40 60 56 102" stroke="#A78BFA" stroke-width="1.4" stroke-dasharray="4 4" fill="none" marker-end="url(#lmArrDim)"/>
  <rect x="140" y="92" width="110" height="20" rx="10" fill="#1E1B4B" stroke="#A78BFA"/>
  <text x="195" y="106" font-size="10" fill="#A78BFA" text-anchor="middle" font-weight="700">/refactor · resume</text>

  <!-- 5 stacked nodes (compact) -->
  <g>
    <rect x="20" y="128" width="350" height="62" rx="10" fill="#111827" stroke="#1F2937"/>
    <text x="36" y="148" font-size="9" fill="#FBBF24">01 · goal</text>
    <text x="36" y="170" font-size="13" fill="#E5E7EB" font-weight="700">/start</text>
    <text x="116" y="170" font-size="10" fill="#94A3B8">classify · route · resume · split</text>
    <text x="36" y="184" font-size="9" fill="#60A5FA">$ /curdx-flow:start todo-app …</text>
  </g>

  <path d="M195 196 L195 208" stroke="#3B82F6" stroke-width="2" marker-end="url(#lmArr)"/>

  <g>
    <rect x="20" y="214" width="350" height="62" rx="10" fill="#111827" stroke="#1F2937"/>
    <text x="36" y="234" font-size="9" fill="#A78BFA">02 · spec</text>
    <text x="36" y="256" font-size="13" fill="#E5E7EB" font-weight="700">/research · /design</text>
    <text x="36" y="270" font-size="9" fill="#A78BFA">research.md · requirements.md · design.md</text>
  </g>

  <path d="M195 282 L195 294" stroke="#3B82F6" stroke-width="2" marker-end="url(#lmArr)"/>

  <g>
    <rect x="20" y="300" width="350" height="62" rx="10" fill="#111827" stroke="#1F2937"/>
    <text x="36" y="320" font-size="9" fill="#22D3EE">03 · tasks</text>
    <text x="36" y="342" font-size="13" fill="#E5E7EB" font-weight="700">/tasks</text>
    <text x="116" y="342" font-size="10" fill="#94A3B8">value slices, each with verify</text>
    <text x="36" y="356" font-size="9" fill="#22D3EE">tasks.md</text>
  </g>

  <path d="M195 368 L195 380" stroke="#3B82F6" stroke-width="2" marker-end="url(#lmArr)"/>

  <g>
    <rect x="20" y="386" width="350" height="62" rx="10" fill="#111827" stroke="#1F2937"/>
    <text x="36" y="406" font-size="9" fill="#60A5FA">04 · run</text>
    <text x="36" y="428" font-size="13" fill="#E5E7EB" font-weight="700">/implement</text>
    <text x="116" y="428" font-size="10" fill="#94A3B8">spec-executor + qa-engineer</text>
    <text x="36" y="442" font-size="9" fill="#60A5FA">$ npm test ✓  · browser check ✓</text>
  </g>

  <path d="M195 454 L195 466" stroke="#3B82F6" stroke-width="2" marker-end="url(#lmArr)"/>

  <g>
    <rect x="20" y="472" width="350" height="62" rx="10" fill="#0B1F3A" stroke="#60A5FA"/>
    <text x="36" y="492" font-size="9" fill="#60A5FA">05 · proof</text>
    <text x="36" y="514" font-size="13" fill="#E5E7EB" font-weight="700">done = evidence</text>
    <circle cx="338" cy="504" r="11" fill="none" stroke="#60A5FA" stroke-width="1.6"/>
    <path d="M332 504 L337 510 L344 498" stroke="#60A5FA" stroke-width="1.8" fill="none" stroke-linecap="round" stroke-linejoin="round"/>
    <text x="36" y="528" font-size="9" fill="#60A5FA">written to .curdx-state.json</text>
  </g>
</svg>
