<svg width="960" height="420" viewBox="0 0 960 420" fill="none" xmlns="http://www.w3.org/2000/svg" role="img" aria-labelledby="title desc">
  <title id="title">CurdX Flow beginner path</title>
  <desc id="desc">Shows the onboarding path from install, start, spec review, task execution, and verification.</desc>
  <defs>
    <marker id="arrow" markerWidth="12" markerHeight="12" refX="10" refY="6" orient="auto">
      <path d="M2 2L10 6L2 10" stroke="#0F766E" stroke-width="2.4" stroke-linecap="round" stroke-linejoin="round"/>
    </marker>
  </defs>

  <rect width="960" height="420" rx="28" fill="#FFFFFF"/>
  <rect x="28" y="28" width="904" height="364" rx="24" fill="#F8FAFC" stroke="#E2E8F0"/>

  <text x="56" y="76" fill="#0F172A" font-family="Inter, ui-sans-serif, system-ui" font-size="28" font-weight="800">First run: follow this path</text>
  <text x="56" y="108" fill="#475569" font-family="Inter, ui-sans-serif, system-ui" font-size="15">From install to verification, each step leaves something you can inspect.</text>

  <g font-family="Inter, ui-sans-serif, system-ui">
    <rect x="56" y="150" width="138" height="92" rx="16" fill="#EFF6FF" stroke="#BFDBFE"/>
    <text x="93" y="184" fill="#1D4ED8" font-size="18" font-weight="800">Install</text>
    <text x="84" y="210" fill="#475569" font-size="13">npm exec</text>

    <rect x="240" y="150" width="138" height="92" rx="16" fill="#ECFDF5" stroke="#BBF7D0"/>
    <text x="288" y="184" fill="#047857" font-size="18" font-weight="800">Start</text>
    <text x="271" y="210" fill="#475569" font-size="13">start</text>

    <rect x="424" y="150" width="138" height="92" rx="16" fill="#FFF7ED" stroke="#FED7AA"/>
    <text x="458" y="184" fill="#C2410C" font-size="18" font-weight="800">Review</text>
    <text x="445" y="210" fill="#475569" font-size="13">requirements</text>

    <rect x="608" y="150" width="138" height="92" rx="16" fill="#F5F3FF" stroke="#DDD6FE"/>
    <text x="644" y="184" fill="#6D28D9" font-size="18" font-weight="800">Execute</text>
    <text x="636" y="210" fill="#475569" font-size="13">implement</text>

    <rect x="792" y="150" width="112" height="92" rx="16" fill="#FDF2F8" stroke="#FBCFE8"/>
    <text x="817" y="184" fill="#BE185D" font-size="18" font-weight="800">Verify</text>
    <text x="821" y="210" fill="#475569" font-size="13">proof</text>
  </g>

  <path d="M204 196H230" stroke="#0F766E" stroke-width="3" marker-end="url(#arrow)"/>
  <path d="M388 196H414" stroke="#0F766E" stroke-width="3" marker-end="url(#arrow)"/>
  <path d="M572 196H598" stroke="#0F766E" stroke-width="3" marker-end="url(#arrow)"/>
  <path d="M756 196H782" stroke="#0F766E" stroke-width="3" marker-end="url(#arrow)"/>

  <rect x="76" y="288" width="808" height="64" rx="16" fill="#FFFFFF" stroke="#CBD5E1"/>
  <text x="104" y="315" fill="#0F172A" font-family="Inter, ui-sans-serif, system-ui" font-size="16" font-weight="800">Success signals</text>
  <text x="104" y="339" fill="#475569" font-family="Inter, ui-sans-serif, system-ui" font-size="14">Spec directory, next-step status, and test or browser evidence. If one is missing, keep going.</text>
  <rect x="686" y="304" width="156" height="32" rx="16" fill="#ECFDF5"/>
  <text x="716" y="325" fill="#047857" font-family="Inter, ui-sans-serif, system-ui" font-size="13" font-weight="800">status resumes</text>
</svg>
