<svg width="1100" height="420" viewBox="0 0 1100 420" fill="none" xmlns="http://www.w3.org/2000/svg" role="img" aria-labelledby="title desc">
  <title id="title">curdx-flow workflow loop</title>
  <desc id="desc">Workflow diagram from start to research, requirements, design, tasks, implement, and verification.</desc>
  <defs>
    <linearGradient id="bg" x1="0" y1="0" x2="1100" y2="420" gradientUnits="userSpaceOnUse">
      <stop stop-color="#F8FAFC"/>
      <stop offset="1" stop-color="#ECFDF5"/>
    </linearGradient>
    <marker id="arrow" markerWidth="12" markerHeight="12" refX="10" refY="6" orient="auto">
      <path d="M2 2L10 6L2 10" fill="none" stroke="#0F766E" stroke-width="2" stroke-linecap="round" stroke-linejoin="round"/>
    </marker>
  </defs>
  <rect width="1100" height="420" rx="26" fill="url(#bg)"/>
  <text x="58" y="62" fill="#0F172A" font-family="Inter, ui-sans-serif, system-ui" font-size="28" font-weight="800">From idea to delivery without context loss</text>
  <text x="58" y="96" fill="#475569" font-family="Inter, ui-sans-serif, system-ui" font-size="16">Each phase has files, agents, checkpoints, and verification evidence.</text>
  <g font-family="Inter, ui-sans-serif, system-ui">
    <rect x="58" y="150" width="132" height="78" rx="16" fill="#0F172A"/>
    <text x="88" y="182" fill="#FFFFFF" font-size="18" font-weight="700">start</text>
    <text x="79" y="207" fill="#CBD5E1" font-size="13">route / resume</text>
    <rect x="238" y="150" width="132" height="78" rx="16" fill="#E0F2FE" stroke="#38BDF8"/>
    <text x="263" y="182" fill="#075985" font-size="18" font-weight="700">research</text>
    <text x="267" y="207" fill="#0369A1" font-size="13">discover facts</text>
    <rect x="418" y="150" width="132" height="78" rx="16" fill="#DCFCE7" stroke="#22C55E"/>
    <text x="436" y="182" fill="#166534" font-size="18" font-weight="700">requirements</text>
    <text x="449" y="207" fill="#15803D" font-size="13">acceptance</text>
    <rect x="598" y="150" width="132" height="78" rx="16" fill="#F5F3FF" stroke="#A78BFA"/>
    <text x="636" y="182" fill="#5B21B6" font-size="18" font-weight="700">design</text>
    <text x="628" y="207" fill="#6D28D9" font-size="13">technical plan</text>
    <rect x="778" y="150" width="132" height="78" rx="16" fill="#FEF3C7" stroke="#F59E0B"/>
    <text x="817" y="182" fill="#92400E" font-size="18" font-weight="700">tasks</text>
    <text x="807" y="207" fill="#B45309" font-size="13">value slices</text>
    <rect x="958" y="150" width="132" height="78" rx="16" fill="#FEE2E2" stroke="#FB7185"/>
    <text x="987" y="182" fill="#9F1239" font-size="18" font-weight="700">implement</text>
    <text x="992" y="207" fill="#BE123C" font-size="13">task by task</text>
  </g>
  <path d="M198 189H230" stroke="#0F766E" stroke-width="3" marker-end="url(#arrow)"/>
  <path d="M378 189H410" stroke="#0F766E" stroke-width="3" marker-end="url(#arrow)"/>
  <path d="M558 189H590" stroke="#0F766E" stroke-width="3" marker-end="url(#arrow)"/>
  <path d="M738 189H770" stroke="#0F766E" stroke-width="3" marker-end="url(#arrow)"/>
  <path d="M918 189H950" stroke="#0F766E" stroke-width="3" marker-end="url(#arrow)"/>
  <g>
    <rect x="200" y="294" width="700" height="72" rx="18" fill="#FFFFFF" stroke="#CBD5E1"/>
    <text x="236" y="325" fill="#0F172A" font-family="Inter, ui-sans-serif, system-ui" font-size="17" font-weight="800">verificationBlocks</text>
    <text x="420" y="325" fill="#475569" font-family="Inter, ui-sans-serif, system-ui" font-size="15">Command exit codes, browser DOM/screenshots, network/console, CI, release, and npm evidence.</text>
    <text x="236" y="350" fill="#64748B" font-family="Inter, ui-sans-serif, system-ui" font-size="14">Stop hook and `curdx-flow check` block completion claims without evidence.</text>
  </g>
</svg>
