<svg xmlns="http://www.w3.org/2000/svg" viewBox="0 0 960 440" width="960" height="440" role="img" aria-labelledby="lpTitle lpDesc" font-family="'JetBrains Mono', ui-monospace, SFMono-Regular, Menlo, Consolas, monospace">
  <title id="lpTitle">CurdX Flow workflow loop</title>
  <desc id="lpDesc">A reviewable, resumable cycle from goal to proof, with refactor returning to specs.</desc>
  <defs>
    <linearGradient id="lpBg" x1="0" y1="0" x2="0" y2="1">
      <stop offset="0" stop-color="#0B1020"/>
      <stop offset="1" stop-color="#050817"/>
    </linearGradient>
    <marker id="lpArr" markerWidth="10" markerHeight="10" refX="8" refY="5" orient="auto">
      <path d="M0 0 L8 5 L0 10 Z" fill="#3B82F6"/>
    </marker>
    <marker id="lpArrDim" markerWidth="10" markerHeight="10" refX="8" refY="5" orient="auto">
      <path d="M0 0 L8 5 L0 10 Z" fill="#A78BFA"/>
    </marker>
  </defs>

  <rect width="960" height="440" rx="22" fill="url(#lpBg)"/>
  <rect x="0.5" y="0.5" width="959" height="439" rx="21.5" fill="none" stroke="#1F2937"/>

  <path d="M0 22 Q0 0 22 0 L938 0 Q960 0 960 22 L960 44 L0 44 Z" fill="#0F172A"/>
  <circle cx="22" cy="22" r="5.5" fill="#475569"/>
  <circle cx="42" cy="22" r="5.5" fill="#475569"/>
  <circle cx="62" cy="22" r="5.5" fill="#475569"/>
  <text x="480" y="27" font-size="12" fill="#64748B" text-anchor="middle">— curdx-flow · loop —</text>
  <line x1="0" y1="44" x2="960" y2="44" stroke="#1F2937"/>

  <text x="40" y="82" font-size="20" fill="#E5E7EB" font-weight="700">A loop you can pause, resume, and replay.</text>
  <text x="40" y="104" font-size="12" fill="#94A3B8">Every node leaves a file. Every transition needs a reason.</text>

  <!-- Refactor return arrow -->
  <path d="M820 144 Q480 92 140 144" stroke="#A78BFA" stroke-width="1.6" stroke-dasharray="4 4" fill="none" marker-end="url(#lpArrDim)"/>
  <rect x="424" y="106" width="112" height="22" rx="11" fill="#1E1B4B" stroke="#A78BFA"/>
  <text x="480" y="121" font-size="11" fill="#A78BFA" text-anchor="middle" font-weight="700">/refactor · resume</text>

  <g>
    <!-- 01 goal -->
    <rect x="56" y="158" width="160" height="148" rx="12" fill="#111827" stroke="#1F2937"/>
    <text x="72" y="180" font-size="10" fill="#64748B">01</text>
    <text x="96" y="180" font-size="10" fill="#FBBF24">goal</text>
    <text x="72" y="208" font-size="14" fill="#E5E7EB" font-weight="700">/start</text>
    <text x="72" y="232" font-size="10" fill="#94A3B8">classify, route,</text>
    <text x="72" y="246" font-size="10" fill="#94A3B8">resume or split</text>
    <rect x="72" y="260" width="128" height="32" rx="6" fill="#020617" stroke="#1F2937"/>
    <text x="84" y="280" font-size="10" fill="#60A5FA">$ todo-app …</text>

    <path d="M220 232 L246 232" stroke="#3B82F6" stroke-width="2" marker-end="url(#lpArr)"/>

    <!-- 02 spec -->
    <rect x="250" y="158" width="160" height="148" rx="12" fill="#111827" stroke="#1F2937"/>
    <text x="266" y="180" font-size="10" fill="#64748B">02</text>
    <text x="290" y="180" font-size="10" fill="#A78BFA">spec</text>
    <text x="266" y="208" font-size="14" fill="#E5E7EB" font-weight="700">/research</text>
    <text x="266" y="224" font-size="14" fill="#E5E7EB" font-weight="700">/design</text>
    <text x="266" y="248" font-size="10" fill="#94A3B8">facts · risks ·</text>
    <text x="266" y="262" font-size="10" fill="#94A3B8">interfaces · scope</text>
    <text x="266" y="288" font-size="10" fill="#A78BFA">research.md · design.md</text>

    <path d="M414 232 L440 232" stroke="#3B82F6" stroke-width="2" marker-end="url(#lpArr)"/>

    <!-- 03 tasks -->
    <rect x="444" y="158" width="160" height="148" rx="12" fill="#111827" stroke="#1F2937"/>
    <text x="460" y="180" font-size="10" fill="#64748B">03</text>
    <text x="484" y="180" font-size="10" fill="#22D3EE">tasks</text>
    <text x="460" y="208" font-size="14" fill="#E5E7EB" font-weight="700">/tasks</text>
    <text x="460" y="232" font-size="10" fill="#94A3B8">value slices,</text>
    <text x="460" y="246" font-size="10" fill="#94A3B8">each verifiable</text>
    <text x="460" y="288" font-size="10" fill="#22D3EE">tasks.md</text>

    <path d="M608 232 L634 232" stroke="#3B82F6" stroke-width="2" marker-end="url(#lpArr)"/>

    <!-- 04 run -->
    <rect x="638" y="158" width="160" height="148" rx="12" fill="#111827" stroke="#1F2937"/>
    <text x="654" y="180" font-size="10" fill="#64748B">04</text>
    <text x="678" y="180" font-size="10" fill="#60A5FA">run</text>
    <text x="654" y="208" font-size="14" fill="#E5E7EB" font-weight="700">/implement</text>
    <text x="654" y="232" font-size="10" fill="#94A3B8">spec-executor</text>
    <text x="654" y="246" font-size="10" fill="#94A3B8">+ qa-engineer</text>
    <rect x="654" y="260" width="128" height="32" rx="6" fill="#020617" stroke="#1F2937"/>
    <text x="666" y="280" font-size="10" fill="#60A5FA">$ npm test ✓</text>

    <path d="M802 232 L828 232" stroke="#3B82F6" stroke-width="2" marker-end="url(#lpArr)"/>

    <!-- 05 proof -->
    <rect x="832" y="158" width="88" height="148" rx="12" fill="#0B1F3A" stroke="#60A5FA"/>
    <text x="848" y="180" font-size="10" fill="#60A5FA">05</text>
    <text x="848" y="208" font-size="14" fill="#E5E7EB" font-weight="700">proof</text>
    <circle cx="876" cy="240" r="14" fill="none" stroke="#60A5FA" stroke-width="1.8"/>
    <path d="M868 240 L874 246 L884 234" stroke="#60A5FA" stroke-width="2" fill="none" stroke-linecap="round" stroke-linejoin="round"/>
    <text x="848" y="288" font-size="10" fill="#60A5FA">state.json</text>
  </g>

  <rect x="40" y="346" width="880" height="62" rx="10" fill="#0F172A" stroke="#1F2937"/>
  <text x="56" y="372" font-size="11" fill="#64748B">$ /curdx-flow:status</text>
  <text x="56" y="390" font-size="12" fill="#E5E7EB">→ active spec  ·  current phase  ·  next command  ·  missing capabilities</text>
  <text x="816" y="390" font-size="11" fill="#60A5FA" text-anchor="end" font-weight="700">no silent passes</text>
  <rect x="828" y="378" width="76" height="18" rx="9" fill="#0B1F3A" stroke="#60A5FA"/>
  <text x="866" y="391" font-size="10" fill="#60A5FA" text-anchor="middle">enforced</text>
</svg>
