<svg xmlns="http://www.w3.org/2000/svg" viewBox="0 0 390 640" width="390" height="640" role="img" aria-labelledby="omTitle omDesc" font-family="'JetBrains Mono', ui-monospace, SFMono-Regular, Menlo, Consolas, monospace">
  <title id="omTitle">CurdX Flow mobile overview</title>
  <desc id="omDesc">Goal becomes specs and verified proof — vertical layout.</desc>
  <defs>
    <linearGradient id="omBg" x1="0" y1="0" x2="0" y2="1">
      <stop offset="0" stop-color="#0B1020"/>
      <stop offset="1" stop-color="#050817"/>
    </linearGradient>
    <marker id="omArr" markerWidth="9" markerHeight="9" refX="7" refY="4.5" orient="auto">
      <path d="M0 0 L7 4.5 L0 9 Z" fill="#3B82F6"/>
    </marker>
  </defs>

  <rect width="390" height="640" rx="18" fill="url(#omBg)"/>
  <rect x="0.5" y="0.5" width="389" height="639" rx="17.5" fill="none" stroke="#1F2937"/>

  <path d="M0 18 Q0 0 18 0 L372 0 Q390 0 390 18 L390 36 L0 36 Z" fill="#0F172A"/>
  <circle cx="18" cy="18" r="4" fill="#475569"/>
  <circle cx="32" cy="18" r="4" fill="#475569"/>
  <circle cx="46" cy="18" r="4" fill="#475569"/>
  <text x="195" y="22" font-size="10" fill="#64748B" text-anchor="middle">curdx-flow · overview</text>
  <line x1="0" y1="36" x2="390" y2="36" stroke="#1F2937"/>

  <text x="24" y="66" font-size="15" fill="#E5E7EB" font-weight="700">From <tspan fill="#FBBF24">"build this"</tspan></text>
  <text x="24" y="88" font-size="15" fill="#60A5FA" font-weight="700">to proof it shipped.</text>
  <text x="24" y="106" font-size="10" fill="#94A3B8">spec in repo · evidence on PR · resumable</text>

  <!-- Card 1 -->
  <g>
    <rect x="20" y="120" width="350" height="148" rx="12" fill="#111827" stroke="#1F2937"/>
    <text x="36" y="142" font-size="9" fill="#64748B">01 · goal</text>
    <circle cx="354" cy="138" r="3" fill="#FBBF24"/>
    <text x="36" y="166" font-size="13" fill="#E5E7EB" font-weight="700">State the goal.</text>
    <rect x="36" y="180" width="318" height="74" rx="8" fill="#020617" stroke="#1F2937"/>
    <text x="48" y="200" font-size="10" fill="#64748B">$</text>
    <text x="60" y="200" font-size="10" fill="#60A5FA">/curdx-flow:start todo-app</text>
    <text x="48" y="218" font-size="10" fill="#94A3B8">  "create + edit + delete,</text>
    <text x="48" y="234" font-size="10" fill="#94A3B8">   browser-verified"</text>
    <text x="48" y="250" font-size="10" fill="#64748B">$</text>
    <rect x="60" y="240" width="8" height="11" fill="#60A5FA">
      <animate attributeName="opacity" values="1;0.15;1" dur="1.1s" repeatCount="indefinite"/>
    </rect>
  </g>

  <path d="M195 274 L195 290" stroke="#3B82F6" stroke-width="2" marker-end="url(#omArr)"/>

  <!-- Card 2 -->
  <g>
    <rect x="20" y="296" width="350" height="148" rx="12" fill="#111827" stroke="#1F2937"/>
    <text x="36" y="318" font-size="9" fill="#64748B">02 · spec/</text>
    <circle cx="354" cy="314" r="3" fill="#A78BFA"/>
    <text x="36" y="342" font-size="13" fill="#E5E7EB" font-weight="700">Pin the plan to files.</text>
    <rect x="36" y="356" width="318" height="74" rx="8" fill="#020617" stroke="#1F2937"/>
    <text x="48" y="376" font-size="10" fill="#64748B">specs/todo-app/</text>
    <text x="60" y="394" font-size="10" fill="#E5E7EB">├── requirements.md</text>
    <text x="60" y="410" font-size="10" fill="#E5E7EB">├── design.md  ├── tasks.md</text>
    <text x="60" y="426" font-size="10" fill="#94A3B8">└── .curdx-state.json</text>
  </g>

  <path d="M195 450 L195 466" stroke="#3B82F6" stroke-width="2" marker-end="url(#omArr)"/>

  <!-- Card 3 -->
  <g>
    <rect x="20" y="472" width="350" height="120" rx="12" fill="#0B1F3A" stroke="#60A5FA"/>
    <text x="36" y="494" font-size="9" fill="#60A5FA">03 · proof</text>
    <text x="36" y="518" font-size="13" fill="#E5E7EB" font-weight="700">Done = evidence.</text>
    <g font-size="10" fill="#E5E7EB">
      <text x="36" y="540">✓ tests pass</text>
      <text x="140" y="540">✓ build clean</text>
      <text x="246" y="540">✓ browser ok</text>
      <text x="36" y="558">✓ CI green</text>
      <text x="140" y="558">✓ release tag</text>
      <text x="246" y="558" fill="#60A5FA">→ state.json</text>
    </g>
  </g>

  <!-- Footer chip -->
  <rect x="20" y="604" width="350" height="22" rx="11" fill="#0F172A" stroke="#1F2937"/>
  <text x="195" y="619" font-size="10" fill="#94A3B8" text-anchor="middle">git diff + <tspan fill="#60A5FA">specs/</tspan> + verificationBlocks</text>
</svg>
